<svg width="50" height="50" viewBox="0 0 50 50" fill="none" xmlns="http://www.w3.org/2000/svg">
<path d="M15.5716 10.7961C15.1091 13.0915 15.7737 15.7189 16.7029 18.8961C16.759 19.0878 16.6503 19.333 16.5521 19.3616C16.1302 19.4844 15.4069 19.3536 15.267 19.0663C14.543 17.5798 14.1987 16.0595 13.353 14.5961C12.768 13.5838 12.1628 12.618 11.442 11.9649C10.5665 11.1716 9.8804 11.0156 8.94359 11.407C7.76181 11.9008 7.04785 13.0846 6.80296 14.1461C6.55445 15.2233 6.65839 16.4669 6.85283 17.5461C7.08168 18.8163 7.37285 19.8186 7.74705 21.0072C7.46155 21.8513 5.74328 26.4842 5.32786 29.6961C4.79457 33.8192 3.29478 46.2947 17.0412 44.9077C22.1115 44.3961 26.2431 42.6192 30.1529 40.7961C31.9446 39.9607 34.1921 38.8828 36.3528 37.6961C38.5146 36.5087 40.52 35.2432 42.0528 33.8961C43.5881 32.5468 44.7065 31.0687 44.5029 29.5961C44.1747 27.2229 42.6008 25.4587 40.5029 24.0961C38.3971 22.7285 34.8014 21.4576 32.2027 20.6983C28.7929 19.7021 26.1531 19.3148 22.9529 19.1407C22.7737 15.8984 23.2058 11.6318 21.1528 9.14621C20.6773 8.57055 19.9842 8.20457 19.1528 8.14621C17.8167 8.20001 16.001 8.66531 15.5716 10.7961Z" fill="#40AF8E"/>
<path d="M31.7165 16.5933C31.682 17.3919 31.8492 19.1141 32.8957 19.2467C34.1432 19.3942 34.5437 18.367 34.6797 17.5642C35.1125 15.0091 35.2328 14.2453 35.449 11.9302C35.7039 9.20161 36.3741 4.59882 35.2026 5.02802C34.0158 5.46285 33.0731 9.13936 32.7643 10.6801C32.5238 11.8804 31.7758 15.2219 31.7165 16.5933Z" fill="#40AF8E"/>
<path d="M37.1814 17.1724C36.498 18.7675 36.1748 20.1454 37.1192 20.6135C38.2448 21.1714 39.2177 20.0912 39.5343 19.341C40.4889 17.0787 41.0173 15.7091 41.7539 13.998C42.8374 11.4808 45.5418 6.64546 43.757 6.9019C42.5059 7.08166 40.823 10.2596 40.0157 11.6078C38.9749 13.3394 38.1657 14.8751 37.1814 17.1724Z" fill="#40AF8E"/>
</svg>
